<svg xmlns="http://www.w3.org/2000/svg" viewBox="0 0 90.33 13"><defs><style>.cls-1{fill:#455a64}</style><linearGradient id="linear-gradient" x1="61.91" y1="572.51" x2="61.91" y2="559.81" gradientTransform="matrix(1 0 0 -1 0 572.81)" gradientUnits="userSpaceOnUse"><stop offset="0" stop-color="#009eb7"/><stop offset="1" stop-color="#80deea"/></linearGradient></defs><g id="Layer_2" data-name="Layer 2"><g id="SIGN_UP" data-name="SIGN UP"><g id="LOGO"><path class="cls-1" d="M0 12.71V.09h4.59a6.9 6.9 0 0 1 2.71.5 5.47 5.47 0 0 1 2 1.35 5.76 5.76 0 0 1 1.17 2 7.51 7.51 0 0 1 .39 2.44A7.44 7.44 0 0 1 10.37 9a5.46 5.46 0 0 1-1.25 2 5.64 5.64 0 0 1-2 1.28 7 7 0 0 1-2.57.45zm8.34-6.33a5.29 5.29 0 0 0-.25-1.67 3.68 3.68 0 0 0-.73-1.31 3.24 3.24 0 0 0-1.18-.86 4 4 0 0 0-1.59-.3H2.45v8.32h2.14a3.89 3.89 0 0 0 1.61-.32 3.26 3.26 0 0 0 1.17-.88A4 4 0 0 0 8.09 8a5.48 5.48 0 0 0 .25-1.62zM21.5 10.56v2.15h-8.77V.09h8.61v2.15h-6.15v3h5.31v2h-5.31v3.29zM24.72.09l3.41 9.55L31.51.09h2.58l-4.93 12.62H27.1L22.14.09zM36.74.09l3.41 9.55L43.53.09h2.58l-4.93 12.62h-2.06L34.16.09zM46.75 11.13a3.77 3.77 0 0 0 1 .46 4.35 4.35 0 0 0 1.38.2 3 3 0 0 0 1.54-.35 2.19 2.19 0 0 0 .88-1 5.26 5.26 0 0 0 .39-1.66q.09-1 .09-2.25V.09h1.25v6.42a25.4 25.4 0 0 1-.14 2.62 5.79 5.79 0 0 1-.56 2 3.05 3.05 0 0 1-1.24 1.3 4.48 4.48 0 0 1-2.21.46 4.73 4.73 0 0 1-2.74-.78zM79.38 9.46a2.9 2.9 0 0 1-.28 1.3 3.43 3.43 0 0 1-.77 1 3.34 3.34 0 0 1-1.12.67 4 4 0 0 1-1.37.24h-6V.09H76a2.48 2.48 0 0 1 1.19.28 3.08 3.08 0 0 1 .9.74 3.29 3.29 0 0 1 .58 1 3.32 3.32 0 0 1 .21 1.17 3.39 3.39 0 0 1-.48 1.75A3 3 0 0 1 77 6.24a3.16 3.16 0 0 1 1.72 1.19 3.38 3.38 0 0 1 .66 2.03zm-8.25-8.29v4.66h4.34a2 2 0 0 0 .86-.19 2.16 2.16 0 0 0 .67-.52 2.26 2.26 0 0 0 .45-.74 2.41 2.41 0 0 0 .16-.88 2.74 2.74 0 0 0-.15-.9 2 2 0 0 0-.46-.74 2.06 2.06 0 0 0-.64-.5 1.83 1.83 0 0 0-.82-.19zm7 8.08a2.47 2.47 0 0 0-1.3-2.2 1.73 1.73 0 0 0-.86-.2h-4.84v4.78h4.71a2.15 2.15 0 0 0 .9-.2 2.32 2.32 0 0 0 .73-.52 2.42 2.42 0 0 0 .66-1.66zM89.11 2.45a3.88 3.88 0 0 0-1.43-1 5.16 5.16 0 0 0-2-.38 3.82 3.82 0 0 0-2.44.63 2.13 2.13 0 0 0-.76 1.72 1.83 1.83 0 0 0 .2.93 1.73 1.73 0 0 0 .63.63 4.29 4.29 0 0 0 1.1.47c.44.13 1 .26 1.57.39a14.34 14.34 0 0 1 1.82.48 5.32 5.32 0 0 1 1.36.68A2.89 2.89 0 0 1 90 8a3.06 3.06 0 0 1 .3 1.43 3.26 3.26 0 0 1-.3 1.49 3.14 3.14 0 0 1-1 1.07 4.33 4.33 0 0 1-1.44.63A8.06 8.06 0 0 1 80.71 11l.62-1a5.22 5.22 0 0 0 .81.68 5.87 5.87 0 0 0 1 .56 6.56 6.56 0 0 0 1.24.37 6.39 6.39 0 0 0 1.38.13 4.36 4.36 0 0 0 2.36-.54A1.85 1.85 0 0 0 89 9.53a1.91 1.91 0 0 0-.24-1 2 2 0 0 0-.72-.69 5.28 5.28 0 0 0-1.2-.51q-.7-.21-1.65-.42t-1.74-.48a4.8 4.8 0 0 1-1.26-.63 2.42 2.42 0 0 1-.78-.9 2.89 2.89 0 0 1-.26-1.28 3.5 3.5 0 0 1 .33-1.56 3 3 0 0 1 .95-1.13 4.41 4.41 0 0 1 1.43-.69 6.89 6.89 0 0 1 4.06.14 6.16 6.16 0 0 1 1.79 1.08z"/><path d="M61.91 13a6.35 6.35 0 1 1 6.35-6.35A6.35 6.35 0 0 1 61.91 13zm0-11.86a5.51 5.51 0 1 0 5.5 5.51 5.51 5.51 0 0 0-5.5-5.51z" fill="url(#linear-gradient)"/></g></g></g></svg>
