<svg width="348" height="241" viewBox="0 0 348 241" fill="none" xmlns="http://www.w3.org/2000/svg">
<path d="M340.909 7.20844C336.231 2.53091 330.703 0.234665 324.155 0.234665C317.606 0.234665 311.993 2.61595 307.231 7.37853L217.422 96.4218L184.084 130.185L131.015 182.829L41.2067 93.8704C36.189 89.1078 30.4909 86.7265 24.1124 86.7265C17.734 86.7265 12.1209 89.1078 7.35834 93.8704C2.8509 98.8881 0.554657 104.671 0.554657 111.135C0.554657 117.598 2.8509 123.126 7.35834 127.634L117.068 235.812C117.068 236.067 117.238 236.152 117.408 236.152L120.81 238.023C121.83 238.023 123.531 238.619 126.083 239.894H129.059L130.93 240.235C131.185 240.235 131.781 240.065 132.801 239.894H135.438L139.945 238.364C140.2 238.364 140.285 238.279 140.285 238.194C140.285 238.023 140.455 237.938 140.881 237.853C141.221 237.768 141.731 237.513 142.411 237.088C143.007 236.748 143.857 236.238 144.878 235.727L341.079 41.2269C345.587 36.4643 347.883 30.7662 347.883 24.1326C347.798 17.499 345.501 11.8009 340.909 7.20844Z" fill="white"/>
</svg>
