<svg viewBox="0 0 8 12" xmlns="http://www.w3.org/2000/svg"><path d="M.017 5.775a.667.667 0 0 0 .086-.242l.087-.156c0-.01.006-.017.017-.017L5.187.311c.208-.207.461-.31.761-.31s.565.103.796.31c.218.22.328.476.328.77 0 .293-.11.555-.328.786L2.645 6l4.1 4.132c.217.22.327.478.327.778 0 .3-.106.556-.32.77-.213.213-.472.32-.778.32-.305 0-.568-.104-.787-.31L.207 6.64a1.944 1.944 0 0 0-.06-.113.37.37 0 0 1-.035-.069c-.005-.017-.01-.026-.017-.026-.006 0-.009-.006-.009-.017l-.069-.208v-.12A.578.578 0 0 1 0 6l.017-.087v-.138z" fill-rule="evenodd"/></svg>
