<svg viewBox="0 0 124 72" fill="none" xmlns="http://www.w3.org/2000/svg">
  <path d="M110.677 3.31226H12.9154V64.7377H110.677V3.31226Z" fill="#1A1A1A"/>
  <path d="M73.8873 68.244V69.0498C73.8873 69.2636 73.8024 69.4685 73.6512 69.6196C73.5001 69.7708 73.2952 69.8557 73.0814 69.8557H50.5122C50.2985 69.8557 50.0935 69.7708 49.9424 69.6196C49.7913 69.4685 49.7064 69.2636 49.7064 69.0498V68.244H0V70.3933C0 70.8194 0.169277 71.2281 0.470592 71.5294C0.771907 71.8307 1.18058 72 1.6067 72H121.986C122.412 72 122.821 71.8307 123.122 71.5294C123.423 71.2281 123.592 70.8194 123.592 70.3933V68.244H73.8873Z" fill="#455A64"/>
  <path d="M109.626 0H13.9659C13.1127 0.00294345 12.2954 0.343968 11.693 0.948366C11.0907 1.55276 10.7525 2.37125 10.7525 3.22453V63.9455C10.7525 64.7988 11.0907 65.6172 11.693 66.2216C12.2954 66.826 13.1127 67.1671 13.9659 67.17H109.626C110.48 67.1671 111.297 66.826 111.899 66.2216C112.502 65.6172 112.84 64.7988 112.84 63.9455V3.22453C112.84 2.37125 112.502 1.55276 111.899 0.948366C111.297 0.343968 110.48 0.00294345 109.626 0V0ZM61.7962 0.805823C61.9558 0.805826 62.1118 0.853214 62.2444 0.941979C62.377 1.03074 62.4803 1.15689 62.5411 1.30442C62.602 1.45196 62.6177 1.61423 62.5862 1.77068C62.5547 1.92713 62.4774 2.0707 62.3642 2.1832C62.251 2.2957 62.107 2.37205 61.9504 2.40258C61.7937 2.43311 61.6315 2.41645 61.4844 2.3547C61.3372 2.29295 61.2117 2.1889 61.1238 2.05573C61.0358 1.92257 60.9894 1.76629 60.9904 1.6067C60.9917 1.39384 61.0772 1.19015 61.2281 1.04009C61.3791 0.890038 61.5833 0.805819 61.7962 0.805823ZM110.158 63.8108H13.4345V3.35801H110.158V63.8108Z" fill="#455A64"/>
  <path d="M15.4491 4.73358H14.7075V5.72232H15.4491V4.73358Z" fill="#F2F2F2"/>
  <path d="M15.4491 6.58746H14.7075V7.5762H15.4491V6.58746Z" fill="#F2F2F2"/>
  <path d="M15.4491 8.56494H14.7075V9.55368H15.4491V8.56494Z" fill="#F2F2F2"/>
  <path d="M15.4491 10.4188H14.7075V11.4076H15.4491V10.4188Z" fill="#F2F2F2"/>
  <path d="M15.4491 12.2727H14.7075V13.2614H15.4491V12.2727Z" fill="#F2F2F2"/>
  <path d="M15.4491 14.2502H14.7075V15.2389H15.4491V14.2502Z" fill="#F2F2F2"/>
  <path d="M15.4491 16.1041H14.7075V17.0929H15.4491V16.1041Z" fill="#F2F2F2"/>
  <path d="M15.4491 17.958H14.7075V18.9467H15.4491V17.958Z" fill="#F2F2F2"/>
  <path d="M15.4491 19.8119H14.7075V20.8006H15.4491V19.8119Z" fill="#F2F2F2"/>
  <path d="M15.4491 21.6658H14.7075V22.6545H15.4491V21.6658Z" fill="#F2F2F2"/>
  <path d="M15.4491 23.5197H14.7075V24.5084H15.4491V23.5197Z" fill="#F2F2F2"/>
  <path d="M15.4491 25.3735H14.7075V26.3623H15.4491V25.3735Z" fill="#F2F2F2"/>
  <path d="M15.4491 27.351H14.7075V28.3398H15.4491V27.351Z" fill="#F2F2F2"/>
  <path d="M15.4491 29.2049H14.7075V30.1936H15.4491V29.2049Z" fill="#F2F2F2"/>
  <path d="M15.4491 31.0588H14.7075V32.0475H15.4491V31.0588Z" fill="#F2F2F2"/>
  <path d="M15.4491 33.0363H14.7075V34.025H15.4491V33.0363Z" fill="#F2F2F2"/>
  <path d="M15.4491 34.8901H14.7075V35.8789H15.4491V34.8901Z" fill="#F2F2F2"/>
  <path d="M15.4491 36.744H14.7075V37.7328H15.4491V36.744Z" fill="#F2F2F2"/>
  <path d="M15.4491 38.5979H14.7075V39.5866H15.4491V38.5979Z" fill="#F2F2F2"/>
  <path d="M15.4491 40.4518H14.7075V41.4405H15.4491V40.4518Z" fill="#F2F2F2"/>
  <path d="M15.4491 42.5529H14.7075V43.5416H15.4491V42.5529Z" fill="#F2F2F2"/>
  <path d="M15.4491 44.4067H14.7075V45.3955H15.4491V44.4067Z" fill="#F2F2F2"/>
  <path d="M15.4491 46.3842H14.7075V47.373H15.4491V46.3842Z" fill="#F2F2F2"/>
  <path d="M15.4491 48.2382H14.7075V49.2269H15.4491V48.2382Z" fill="#F2F2F2"/>
  <path d="M15.4491 50.092H14.7075V51.0808H15.4491V50.092Z" fill="#F2F2F2"/>
  <path d="M15.4491 52.0695H14.7075V53.0583H15.4491V52.0695Z" fill="#F2F2F2"/>
  <path d="M15.4491 53.9234H14.7075V54.9121H15.4491V53.9234Z" fill="#F2F2F2"/>
  <path d="M15.4491 55.7773H14.7075V56.766H15.4491V55.7773Z" fill="#F2F2F2"/>
  <path d="M15.4491 57.6312H14.7075V58.6199H15.4491V57.6312Z" fill="#F2F2F2"/>
  <path d="M15.4491 59.485H14.7075V60.4738H15.4491V59.485Z" fill="#F2F2F2"/>
  <path d="M15.4491 61.3389H14.7075V62.3277H15.4491V61.3389Z" fill="#F2F2F2"/>
  <path d="M47.8303 4.73358H17.9209C17.6479 4.73358 17.4265 4.95492 17.4265 5.22795C17.4265 5.50098 17.6479 5.72232 17.9209 5.72232H47.8303C48.1033 5.72232 48.3246 5.50098 48.3246 5.22795C48.3246 4.95492 48.1033 4.73358 47.8303 4.73358Z" fill="#90A4AE"/>
  <path d="M31.7632 6.58746H17.9209C17.6479 6.58746 17.4265 6.8088 17.4265 7.08183C17.4265 7.35487 17.6479 7.5762 17.9209 7.5762H31.7632C32.0363 7.5762 32.2576 7.35487 32.2576 7.08183C32.2576 6.8088 32.0363 6.58746 31.7632 6.58746Z" fill="#455A64"/>
  <path d="M24.3477 8.56494H17.9209C17.6479 8.56494 17.4265 8.78628 17.4265 9.05931C17.4265 9.33234 17.6479 9.55368 17.9209 9.55368H24.3477C24.6207 9.55368 24.8421 9.33234 24.8421 9.05931C24.8421 8.78628 24.6207 8.56494 24.3477 8.56494Z" fill="#4DD0E1"/>
  <path d="M43.0102 8.56494H34.1115C33.8385 8.56494 33.6171 8.78628 33.6171 9.05931C33.6171 9.33234 33.8385 9.55368 34.1115 9.55368H43.0102C43.2832 9.55368 43.5045 9.33234 43.5045 9.05931C43.5045 8.78628 43.2832 8.56494 43.0102 8.56494Z" fill="#009EB7"/>
  <path d="M31.7633 8.56494H26.5724C26.2993 8.56494 26.078 8.78628 26.078 9.05931C26.078 9.33234 26.2993 9.55368 26.5724 9.55368H31.7633C32.0363 9.55368 32.2576 9.33234 32.2576 9.05931C32.2576 8.78628 32.0363 8.56494 31.7633 8.56494Z" fill="#CFD8DC"/>
  <path d="M34.3587 10.4188H25.46C25.187 10.4188 24.9657 10.6402 24.9657 10.9132C24.9657 11.1862 25.187 11.4076 25.46 11.4076H34.3587C34.6317 11.4076 34.8531 11.1862 34.8531 10.9132C34.8531 10.6402 34.6317 10.4188 34.3587 10.4188Z" fill="#4DD0E1"/>
  <path d="M23.1118 10.4188H17.9209C17.6479 10.4188 17.4265 10.6402 17.4265 10.9132C17.4265 11.1862 17.6479 11.4076 17.9209 11.4076H23.1118C23.3848 11.4076 23.6062 11.1862 23.6062 10.9132C23.6062 10.6402 23.3848 10.4188 23.1118 10.4188Z" fill="#CFD8DC"/>
  <path d="M37.9429 10.4188H36.4598C36.1867 10.4188 35.9654 10.6402 35.9654 10.9132C35.9654 11.1862 36.1867 11.4076 36.4598 11.4076H37.9429C38.2159 11.4076 38.4372 11.1862 38.4372 10.9132C38.4372 10.6402 38.2159 10.4188 37.9429 10.4188Z" fill="#CFD8DC"/>
  <path d="M31.7632 12.2727H17.9209C17.6479 12.2727 17.4265 12.494 17.4265 12.7671C17.4265 13.0401 17.6479 13.2614 17.9209 13.2614H31.7632C32.0363 13.2614 32.2576 13.0401 32.2576 12.7671C32.2576 12.494 32.0363 12.2727 31.7632 12.2727Z" fill="#455A64"/>
  <path d="M54.0099 12.2727H40.1675C39.8945 12.2727 39.6732 12.494 39.6732 12.7671C39.6732 13.0401 39.8945 13.2614 40.1675 13.2614H54.0099C54.2829 13.2614 54.5043 13.0401 54.5043 12.7671C54.5043 12.494 54.2829 12.2727 54.0099 12.2727Z" fill="#455A64"/>
  <path d="M31.7632 14.2502H17.9209C17.6479 14.2502 17.4265 14.4715 17.4265 14.7446C17.4265 15.0176 17.6479 15.2389 17.9209 15.2389H31.7632C32.0363 15.2389 32.2576 15.0176 32.2576 14.7446C32.2576 14.4715 32.0363 14.2502 31.7632 14.2502Z" fill="#455A64"/>
  <path d="M31.7632 19.8119H17.9209C17.6479 19.8119 17.4265 20.0332 17.4265 20.3063C17.4265 20.5793 17.6479 20.8006 17.9209 20.8006H31.7632C32.0363 20.8006 32.2576 20.5793 32.2576 20.3063C32.2576 20.0332 32.0363 19.8119 31.7632 19.8119Z" fill="#455A64"/>
  <path d="M40.7855 25.3735H26.9431C26.6701 25.3735 26.4488 25.5949 26.4488 25.8679C26.4488 26.1409 26.6701 26.3623 26.9431 26.3623H40.7855C41.0585 26.3623 41.2799 26.1409 41.2799 25.8679C41.2799 25.5949 41.0585 25.3735 40.7855 25.3735Z" fill="#455A64"/>
  <path d="M43.9989 27.351H30.1566C29.8835 27.351 29.6622 27.5724 29.6622 27.8454C29.6622 28.1184 29.8835 28.3398 30.1566 28.3398H43.9989C44.2719 28.3398 44.4933 28.1184 44.4933 27.8454C44.4933 27.5724 44.2719 27.351 43.9989 27.351Z" fill="#455A64"/>
  <path d="M66.2455 29.2049H42.5158C42.2428 29.2049 42.0214 29.4262 42.0214 29.6993C42.0214 29.9723 42.2428 30.1936 42.5158 30.1936H66.2455C66.5186 30.1936 66.7399 29.9723 66.7399 29.6993C66.7399 29.4262 66.5186 29.2049 66.2455 29.2049Z" fill="#ECEFF1"/>
  <path d="M24.3477 25.3735H17.9209C17.6479 25.3735 17.4265 25.5949 17.4265 25.8679C17.4265 26.1409 17.6479 26.3623 17.9209 26.3623H24.3477C24.6207 26.3623 24.8421 26.1409 24.8421 25.8679C24.8421 25.5949 24.6207 25.3735 24.3477 25.3735Z" fill="#4DD0E1"/>
  <path d="M24.3477 44.4067H17.9209C17.6479 44.4067 17.4265 44.6281 17.4265 44.9011C17.4265 45.1741 17.6479 45.3955 17.9209 45.3955H24.3477C24.6207 45.3955 24.8421 45.1741 24.8421 44.9011C24.8421 44.6281 24.6207 44.4067 24.3477 44.4067Z" fill="#4DD0E1"/>
  <path d="M27.3139 27.351H24.5949C24.3219 27.351 24.1005 27.5724 24.1005 27.8454C24.1005 28.1184 24.3219 28.3398 24.5949 28.3398H27.3139C27.587 28.3398 27.8083 28.1184 27.8083 27.8454C27.8083 27.5724 27.587 27.351 27.3139 27.351Z" fill="#CFD8DC"/>
  <path d="M52.156 27.351H46.9651C46.6921 27.351 46.4707 27.5724 46.4707 27.8454C46.4707 28.1184 46.6921 28.3398 46.9651 28.3398H52.156C52.429 28.3398 52.6504 28.1184 52.6504 27.8454C52.6504 27.5724 52.429 27.351 52.156 27.351Z" fill="#CFD8DC"/>
  <path d="M39.9204 29.2049H26.078C25.805 29.2049 25.5836 29.4262 25.5836 29.6993C25.5836 29.9723 25.805 30.1936 26.078 30.1936H39.9204C40.1934 30.1936 40.4147 29.9723 40.4147 29.6993C40.4147 29.4262 40.1934 29.2049 39.9204 29.2049Z" fill="#455A64"/>
  <path d="M27.5611 31.0588H22.3702C22.0972 31.0588 21.8759 31.2801 21.8759 31.5531C21.8759 31.8262 22.0972 32.0475 22.3702 32.0475H27.5611C27.8341 32.0475 28.0555 31.8262 28.0555 31.5531C28.0555 31.2801 27.8341 31.0588 27.5611 31.0588Z" fill="#CFD8DC"/>
  <path d="M31.2689 33.0363H22.3702C22.0972 33.0363 21.8759 33.2576 21.8759 33.5306C21.8759 33.8037 22.0972 34.025 22.3702 34.025H31.2689C31.5419 34.025 31.7632 33.8037 31.7632 33.5306C31.7632 33.2576 31.5419 33.0363 31.2689 33.0363Z" fill="#4DD0E1"/>
  <path d="M34.6059 34.8901H25.7072C25.4342 34.8901 25.2129 35.1115 25.2129 35.3845C25.2129 35.6575 25.4342 35.8789 25.7072 35.8789H34.6059C34.8789 35.8789 35.1003 35.6575 35.1003 35.3845C35.1003 35.1115 34.8789 34.8901 34.6059 34.8901Z" fill="#4DD0E1"/>
  <path d="M39.7968 34.8901H37.0777C36.8047 34.8901 36.5834 35.1115 36.5834 35.3845C36.5834 35.6575 36.8047 35.8789 37.0777 35.8789H39.7968C40.0698 35.8789 40.2911 35.6575 40.2911 35.3845C40.2911 35.1115 40.0698 34.8901 39.7968 34.8901Z" fill="#CFD8DC"/>
  <path d="M49.437 36.744H25.7072C25.4342 36.744 25.2129 36.9654 25.2129 37.2384C25.2129 37.5114 25.4342 37.7328 25.7072 37.7328H49.437C49.71 37.7328 49.9313 37.5114 49.9313 37.2384C49.9313 36.9654 49.71 36.744 49.437 36.744Z" fill="#455A64"/>
  <path d="M31.2689 38.7215H22.3702C22.0972 38.7215 21.8759 38.9428 21.8759 39.2159C21.8759 39.4889 22.0972 39.7102 22.3702 39.7102H31.2689C31.5419 39.7102 31.7632 39.4889 31.7632 39.2159C31.7632 38.9428 31.5419 38.7215 31.2689 38.7215Z" fill="#ECEFF1"/>
  <path d="M37.9429 12.2727H33.9879C33.7149 12.2727 33.4935 12.494 33.4935 12.7671C33.4935 13.0401 33.7149 13.2614 33.9879 13.2614H37.9429C38.2159 13.2614 38.4372 13.0401 38.4372 12.7671C38.4372 12.494 38.2159 12.2727 37.9429 12.2727Z" fill="#CFD8DC"/>
  <path d="M27.4375 40.4518H22.2466C21.9736 40.4518 21.7523 40.6731 21.7523 40.9462C21.7523 41.2192 21.9736 41.4405 22.2466 41.4405H27.4375C27.7105 41.4405 27.9319 41.2192 27.9319 40.9462C27.9319 40.6731 27.7105 40.4518 27.4375 40.4518Z" fill="#CFD8DC"/>
  <path d="M50.3021 25.3735H43.8753C43.6023 25.3735 43.3809 25.5949 43.3809 25.8679C43.3809 26.1409 43.6023 26.3623 43.8753 26.3623H50.3021C50.5751 26.3623 50.7965 26.1409 50.7965 25.8679C50.7965 25.5949 50.5751 25.3735 50.3021 25.3735Z" fill="#4DD0E1"/>
  <path d="M54.3807 31.0588H30.6509C30.3779 31.0588 30.1566 31.2801 30.1566 31.5531C30.1566 31.8262 30.3779 32.0475 30.6509 32.0475H54.3807C54.6537 32.0475 54.875 31.8262 54.875 31.5531C54.875 31.2801 54.6537 31.0588 54.3807 31.0588Z" fill="#455A64"/>
  <path d="M81.6946 31.0588H57.9648C57.6918 31.0588 57.4705 31.2801 57.4705 31.5531C57.4705 31.8262 57.6918 32.0475 57.9648 32.0475H81.6946C81.9676 32.0475 82.189 31.8262 82.189 31.5531C82.189 31.2801 81.9676 31.0588 81.6946 31.0588Z" fill="#455A64"/>
  <path d="M77.3689 29.2049H68.4702C68.1972 29.2049 67.9758 29.4262 67.9758 29.6993C67.9758 29.9723 68.1972 30.1936 68.4702 30.1936H77.3689C77.6419 30.1936 77.8632 29.9723 77.8632 29.6993C77.8632 29.4262 77.6419 29.2049 77.3689 29.2049Z" fill="#4DD0E1"/>
  <path d="M40.7855 19.8119H34.3587C34.0857 19.8119 33.8643 20.0332 33.8643 20.3063C33.8643 20.5793 34.0857 20.8006 34.3587 20.8006H40.7855C41.0585 20.8006 41.2799 20.5793 41.2799 20.3063C41.2799 20.0332 41.0585 19.8119 40.7855 19.8119Z" fill="#4DD0E1"/>
  <path d="M26.8196 48.2382H17.9209C17.6479 48.2382 17.4265 48.4595 17.4265 48.7325C17.4265 49.0056 17.6479 49.2269 17.9209 49.2269H26.8196C27.0926 49.2269 27.3139 49.0056 27.3139 48.7325C27.3139 48.4595 27.0926 48.2382 26.8196 48.2382Z" fill="#009EB7"/>
  <path d="M46.1 50.092H22.3702C22.0972 50.092 21.8759 50.3134 21.8759 50.5864C21.8759 50.8594 22.0972 51.0808 22.3702 51.0808H46.1C46.373 51.0808 46.5943 50.8594 46.5943 50.5864C46.5943 50.3134 46.373 50.092 46.1 50.092Z" fill="#455A64"/>
  <path d="M32.5048 48.2382H29.7858C29.5127 48.2382 29.2914 48.4595 29.2914 48.7325C29.2914 49.0056 29.5127 49.2269 29.7858 49.2269H32.5048C32.7778 49.2269 32.9992 49.0056 32.9992 48.7325C32.9992 48.4595 32.7778 48.2382 32.5048 48.2382Z" fill="#CFD8DC"/>
  <path d="M51.2909 50.092H48.5718C48.2988 50.092 48.0775 50.3134 48.0775 50.5864C48.0775 50.8594 48.2988 51.0808 48.5718 51.0808H51.2909C51.5639 51.0808 51.7852 50.8594 51.7852 50.5864C51.7852 50.3134 51.5639 50.092 51.2909 50.092Z" fill="#CFD8DC"/>
  <path d="M77.3689 50.092H53.6391C53.3661 50.092 53.1447 50.3134 53.1447 50.5864C53.1447 50.8594 53.3661 51.0808 53.6391 51.0808H77.3689C77.6419 51.0808 77.8632 50.8594 77.8632 50.5864C77.8632 50.3134 77.6419 50.092 77.3689 50.092Z" fill="#455A64"/>
  <path d="M36.2126 52.0695H22.3702C22.0972 52.0695 21.8759 52.2909 21.8759 52.5639C21.8759 52.8369 22.0972 53.0583 22.3702 53.0583H36.2126C36.4856 53.0583 36.7069 52.8369 36.7069 52.5639C36.7069 52.2909 36.4856 52.0695 36.2126 52.0695Z" fill="#455A64"/>
  <path d="M44.4933 52.0695H38.0665C37.7934 52.0695 37.5721 52.2909 37.5721 52.5639C37.5721 52.8369 37.7934 53.0583 38.0665 53.0583H44.4933C44.7663 53.0583 44.9876 52.8369 44.9876 52.5639C44.9876 52.2909 44.7663 52.0695 44.4933 52.0695Z" fill="#4DD0E1"/>
  <path d="M53.1447 52.0695H46.7179C46.4449 52.0695 46.2236 52.2909 46.2236 52.5639C46.2236 52.8369 46.4449 53.0583 46.7179 53.0583H53.1447C53.4178 53.0583 53.6391 52.8369 53.6391 52.5639C53.6391 52.2909 53.4178 52.0695 53.1447 52.0695Z" fill="#009EB7"/>
  <path d="M61.4254 52.0695H54.9986C54.7256 52.0695 54.5043 52.2909 54.5043 52.5639C54.5043 52.8369 54.7256 53.0583 54.9986 53.0583H61.4254C61.6985 53.0583 61.9198 52.8369 61.9198 52.5639C61.9198 52.2909 61.6985 52.0695 61.4254 52.0695Z" fill="#4DD0E1"/>
  <path d="M66.8635 52.0695H64.1445C63.8714 52.0695 63.6501 52.2909 63.6501 52.5639C63.6501 52.8369 63.8714 53.0583 64.1445 53.0583H66.8635C67.1365 53.0583 67.3579 52.8369 67.3579 52.5639C67.3579 52.2909 67.1365 52.0695 66.8635 52.0695Z" fill="#CFD8DC"/>
  <path d="M29.6622 53.9234H25.7072C25.4342 53.9234 25.2129 54.1447 25.2129 54.4178C25.2129 54.6908 25.4342 54.9121 25.7072 54.9121H29.6622C29.9352 54.9121 30.1566 54.6908 30.1566 54.4178C30.1566 54.1447 29.9352 53.9234 29.6622 53.9234Z" fill="#009EB7"/>
  <path d="M36.7069 55.7773H27.8083C27.5353 55.7773 27.3139 55.9986 27.3139 56.2717C27.3139 56.5447 27.5353 56.766 27.8083 56.766H36.7069C36.98 56.766 37.2013 56.5447 37.2013 56.2717C37.2013 55.9986 36.98 55.7773 36.7069 55.7773Z" fill="#009EB7"/>
  <path d="M44.4933 57.6312H30.6509C30.3779 57.6312 30.1566 57.8525 30.1566 58.1255C30.1566 58.3986 30.3779 58.6199 30.6509 58.6199H44.4933C44.7663 58.6199 44.9876 58.3986 44.9876 58.1255C44.9876 57.8525 44.7663 57.6312 44.4933 57.6312Z" fill="#455A64"/>
  <path d="M48.201 59.485H34.3587C34.0857 59.485 33.8643 59.7064 33.8643 59.9794C33.8643 60.2524 34.0857 60.4738 34.3587 60.4738H48.201C48.4741 60.4738 48.6954 60.2524 48.6954 59.9794C48.6954 59.7064 48.4741 59.485 48.201 59.485Z" fill="#455A64"/>
  <path d="M63.6501 55.7773H39.9203C39.6473 55.7773 39.426 55.9986 39.426 56.2717C39.426 56.5447 39.6473 56.766 39.9203 56.766H63.6501C63.9231 56.766 64.1445 56.5447 64.1445 56.2717C64.1445 55.9986 63.9231 55.7773 63.6501 55.7773Z" fill="#ECEFF1"/>
  <path d="M45.8528 19.8119H43.1338C42.8607 19.8119 42.6394 20.0332 42.6394 20.3063C42.6394 20.5793 42.8607 20.8006 43.1338 20.8006H45.8528C46.1258 20.8006 46.3472 20.5793 46.3472 20.3063C46.3472 20.0332 46.1258 19.8119 45.8528 19.8119Z" fill="#CFD8DC"/>
  <path d="M80.7059 36.744H56.9761C56.7031 36.744 56.4817 36.9654 56.4817 37.2384C56.4817 37.5114 56.7031 37.7328 56.9761 37.7328H80.7059C80.9789 37.7328 81.2002 37.5114 81.2002 37.2384C81.2002 36.9654 80.9789 36.744 80.7059 36.744Z" fill="#ECEFF1"/>
  <path d="M54.2571 36.744H51.538C51.265 36.744 51.0437 36.9654 51.0437 37.2384C51.0437 37.5114 51.265 37.7328 51.538 37.7328H54.2571C54.5301 37.7328 54.7514 37.5114 54.7514 37.2384C54.7514 36.9654 54.5301 36.744 54.2571 36.744Z" fill="#CFD8DC"/>
  <path d="M57.2233 38.7215H33.4935C33.2205 38.7215 32.9992 38.9428 32.9992 39.2159C32.9992 39.4889 33.2205 39.7102 33.4935 39.7102H57.2233C57.4963 39.7102 57.7177 39.4889 57.7177 39.2159C57.7177 38.9428 57.4963 38.7215 57.2233 38.7215Z" fill="#ECEFF1"/>
  <path d="M83.5485 38.7215H59.8187C59.5457 38.7215 59.3244 38.9428 59.3244 39.2159C59.3244 39.4889 59.5457 39.7102 59.8187 39.7102H83.5485C83.8215 39.7102 84.0428 39.4889 84.0428 39.2159C84.0428 38.9428 83.8215 38.7215 83.5485 38.7215Z" fill="#455A64"/>
  <path d="M54.3807 59.485H50.4257C50.1527 59.485 49.9313 59.7064 49.9313 59.9794C49.9313 60.2524 50.1527 60.4738 50.4257 60.4738H54.3807C54.6537 60.4738 54.875 60.2524 54.875 59.9794C54.875 59.7064 54.6537 59.485 54.3807 59.485Z" fill="#009EB7"/>
  <path d="M95.1662 38.7215H86.2675C85.9945 38.7215 85.7731 38.9428 85.7731 39.2159C85.7731 39.4889 85.9945 39.7102 86.2675 39.7102H95.1662C95.4392 39.7102 95.6605 39.4889 95.6605 39.2159C95.6605 38.9428 95.4392 38.7215 95.1662 38.7215Z" fill="#ECEFF1"/>
</svg>
