<svg xmlns="http://www.w3.org/2000/svg" viewBox="0 0 102 72" fill="none">
  <path fill="#CFD8DC" d="M90.533 18.099c-7.116-5.859-16.552-9.085-26.57-9.085-10.016 0-19.452 3.226-26.569 9.085-7.236 5.959-11.222 13.917-11.222 22.408 0 8.491 3.985 16.449 11.222 22.408C44.511 68.774 53.947 72 63.964 72c5.925 0 11.647-1.13 16.805-3.264l13.37 1.075h.129a1.556 1.556 0 0 0 1.383-.837c.093-.18.15-.376.166-.578l1.012-12.306c3.216-4.687 4.927-10.02 4.927-15.583 0-8.491-3.986-16.45-11.223-22.408z" opacity=".5"/>
  <path fill="#CFD8DC" d="M88.701 19.644c-6.625-5.455-15.41-8.458-24.737-8.458-9.326 0-18.112 3.003-24.738 8.458-6.737 5.55-10.448 12.957-10.448 20.863 0 7.906 3.711 15.312 10.448 20.862 6.626 5.455 15.412 8.46 24.738 8.46 5.517 0 10.843-1.052 15.647-3.042l12.447 1.002h.12a1.45 1.45 0 0 0 1.443-1.32l.942-11.456c2.993-4.361 4.586-9.327 4.586-14.506 0-7.906-3.71-15.312-10.448-20.863z" opacity=".5"/>
  <path fill="#CFD8DC" d="M11.222 9.085C18.34 3.226 27.775 0 37.792 0s19.453 3.226 26.57 9.085c7.236 5.959 11.222 13.917 11.222 22.408 0 8.491-3.986 16.45-11.223 22.408-7.116 5.859-16.552 9.085-26.57 9.085-5.924 0-11.646-1.129-16.805-3.264L7.617 60.797h-.13a1.556 1.556 0 0 1-1.382-.836 1.52 1.52 0 0 1-.166-.579l-1.014-12.3C1.71 42.39 0 37.056 0 31.493c0-8.491 3.986-16.449 11.222-22.408z" opacity=".5"/>
  <path fill="#CFD8DC" d="M13.055 10.63c6.625-5.454 15.41-8.458 24.737-8.458 9.326 0 18.112 3.004 24.737 8.459 6.738 5.55 10.448 12.956 10.448 20.862 0 7.906-3.71 15.312-10.448 20.863-6.625 5.455-15.41 8.459-24.737 8.459-5.517 0-10.844-1.052-15.647-3.041L9.698 58.776h-.12a1.45 1.45 0 0 1-1.443-1.32l-.943-11.449C4.2 41.638 2.606 36.672 2.606 31.493c0-7.906 3.711-15.312 10.449-20.862z" opacity=".5"/>
  <path fill="#455A64" d="M14.888 12.176c6.133-5.05 14.268-7.832 22.904-7.832s16.77 2.781 22.904 7.832c6.239 5.137 9.675 11.997 9.675 19.317s-3.436 14.18-9.675 19.317c-6.133 5.051-14.268 7.833-22.904 7.833-5.104 0-10.041-.978-14.488-2.814l-11.525.926h-.11a1.343 1.343 0 0 1-1.337-1.22l-.869-10.607c-2.776-4.041-4.25-8.64-4.25-13.435 0-7.32 3.436-14.18 9.675-19.317z"/>
  <path fill="#455A64" d="M37.792 6.661c16.657 0 30.16 11.117 30.16 24.832s-13.503 24.832-30.16 24.832a36.074 36.074 0 0 1-9.448-1.243 33.788 33.788 0 0 1-4.493-1.563c-.081-.035-.16-.073-.242-.109l-3.718.302c.065.037-7.276.71-7.276.71l-.574-10.006c-.092-.123-.185-.245-.276-.371a23.082 23.082 0 0 1-2.27-3.942 20.925 20.925 0 0 1-1.863-8.61c0-13.713 13.503-24.832 30.16-24.832z"/>
  <path fill="#455A64" d="M86.868 21.19c-6.133-5.051-14.268-7.833-22.904-7.833S47.194 16.14 41.06 21.19c-6.24 5.137-9.675 11.997-9.675 19.318 0 7.32 3.436 14.18 9.674 19.317 6.134 5.051 14.27 7.832 22.905 7.832 5.104 0 10.04-.977 14.488-2.814l11.525.927h.109a1.342 1.342 0 0 0 1.338-1.22l.868-10.608c2.776-4.04 4.251-8.639 4.251-13.434 0-7.32-3.436-14.18-9.675-19.317z"/>
  <path fill="#29353A" d="M63.964 15.675c-16.657 0-30.16 11.117-30.16 24.832s13.503 24.832 30.16 24.832c3.19.005 6.367-.413 9.448-1.244a33.782 33.782 0 0 0 4.492-1.563c.082-.034.161-.072.243-.108l3.718.302c-.065.037 7.276.71 7.276.71l.573-10.006c.093-.124.186-.246.276-.371a23.077 23.077 0 0 0 2.27-3.943 20.924 20.924 0 0 0 1.863-8.61c0-13.713-13.502-24.831-30.16-24.831z"/>
  <path fill="#fff" d="M56.58 45.176a2.715 2.715 0 1 0 0-5.43 2.715 2.715 0 0 0 0 5.43zM65.05 45.176a2.715 2.715 0 1 0 0-5.43 2.715 2.715 0 0 0 0 5.43zM73.195 45.176a2.715 2.715 0 1 0 0-5.43 2.715 2.715 0 0 0 0 5.43z"/>
</svg>
