<svg xmlns="http://www.w3.org/2000/svg" viewBox="0 0 197 170"><path class="cls-1" d="M125,170H25A25,25,0,0,1,0,145V45A25,25,0,0,1,25,20H125a25,25,0,0,1,25,25V145A25,25,0,0,1,125,170ZM25,30A15,15,0,0,0,10,45V145a15,15,0,0,0,15,15H125a15,15,0,0,0,15-15V45a15,15,0,0,0-15-15Z"/><path class="cls-1" d="M57,113.67v22.82A3.78,3.78,0,0,0,60.51,140H83.33c5.27,0,10.53-1.76,14-5.27l7-7L69.29,92.6l-7,7C58.75,103.14,57,108.4,57,113.67Z"/><path class="cls-1" d="M190.42,41.69c8.78-8.78,8.78-24.58,0-35.11-8.78-8.78-24.58-8.78-35.11,0l-3.51,3.51L186.91,45.2Z"/><path class="cls-1" d="M143.35,19.19,83.77,78.77l34.76,34.76,59.58-59.58Z"/><path class="cls-1" d="M80.15,82l-6.21,6.21L108.7,123l6.21-6.21Z"/></svg>