<svg xmlns="http://www.w3.org/2000/svg" viewBox="0 0 14 14.01">
  <path d="M11.19 11.39A1.52 1.52 0 0 1 9.45 10a3.79 3.79 0 0 1-2.45.87 3.72 3.72 0 0 1-2.73-1.14A3.72 3.72 0 0 1 3.14 7a3.72 3.72 0 0 1 1.13-2.73A3.72 3.72 0 0 1 7 3.14a3.7 3.7 0 0 1 2.73 1.13A3.71 3.71 0 0 1 10.87 7v2.63a.29.29 0 0 0 .32.32q1.38 0 1.38-2.95a5.5 5.5 0 0 0-.41-2.15 5.5 5.5 0 0 0-1.22-1.78 5.7 5.7 0 0 0-1.8-1.22A5.42 5.42 0 0 0 7 1.44a5.36 5.36 0 0 0-3.94 1.63A5.34 5.34 0 0 0 1.44 7a5.34 5.34 0 0 0 1.62 3.93A5.36 5.36 0 0 0 7 12.57a5.6 5.6 0 0 0 2.3-.47.66.66 0 0 1 .33-.1.68.68 0 0 1 .51.21.74.74 0 0 1 .07.93.61.61 0 0 1-.33.25A6.89 6.89 0 0 1 7 14a6.75 6.75 0 0 1-5-2 6.76 6.76 0 0 1-2-5 6.77 6.77 0 0 1 2-4.94A6.75 6.75 0 0 1 7 0a6.74 6.74 0 0 1 4.94 2.06A6.76 6.76 0 0 1 14 7q0 4.39-2.81 4.39zM7 4.59a2.39 2.39 0 0 0-.94.19 2.39 2.39 0 0 0-1.29 1.28 2.41 2.41 0 0 0 0 1.89 2.39 2.39 0 0 0 1.29 1.28 2.39 2.39 0 0 0 .94.19 2.36 2.36 0 0 0 .94-.19 2.39 2.39 0 0 0 .77-.52 2.5 2.5 0 0 0 .51-.77 2.39 2.39 0 0 0 0-1.86 2.5 2.5 0 0 0-.51-.77 2.39 2.39 0 0 0-.77-.52 2.36 2.36 0 0 0-.94-.2z"/>
</svg>
