<svg xmlns="http://www.w3.org/2000/svg" viewBox="0 0 78 72" fill="none">
  <path fill="#455A64" d="M.529 71.472a1.748 1.748 0 0 0 2.502 0l11.888-11.888a33.66 33.66 0 0 0 22.6 8.603c18.847.007 34.097-15.243 34.097-34.09C71.616 15.252 56.366 0 37.518 0S3.422 15.25 3.422 34.098a34.02 34.02 0 0 0 8.914 22.991L.53 68.894c-.705.708-.705 1.802 0 2.578zm14.08-16.65A30.613 30.613 0 0 1 6.55 34.098c0-17.045 13.842-30.891 30.89-30.891 17.05 0 30.891 13.837 30.891 30.89 0 17.054-13.842 30.891-30.89 30.891a30.577 30.577 0 0 1-20.34-7.664 38.052 38.052 0 0 1-2.491-2.502z"/>
  <path fill="#4DD0E1" d="M62.794 70.593c7.91 0 14.323-6.413 14.323-14.323s-6.413-14.323-14.323-14.323-14.323 6.412-14.323 14.323c0 7.91 6.413 14.323 14.323 14.323z"/>
  <path fill="#fff" d="M72.15 49.92a1.28 1.28 0 0 0-.938-.39 1.297 1.297 0 0 0-.95.4l-5.042 5-1.872 1.898-2.98 2.957-5.042-5a1.357 1.357 0 0 0-.96-.401 1.289 1.289 0 0 0-.938.4c-.246.263-.381.61-.38.97a1.263 1.263 0 0 0 .38.928l6.16 6.075v.009c0 .003.002.005.004.007a.019.019 0 0 0 .017.005l.19.106a.823.823 0 0 1 .295.106h.17l.105.022a.696.696 0 0 0 .106-.022h.143l.254-.084c.014 0 .021 0 .021-.01s.01-.014.032-.022a.473.473 0 0 0 .084-.041c.035-.022.08-.046.144-.075L72.166 51.83a1.345 1.345 0 0 0 .38-.96 1.288 1.288 0 0 0-.396-.95z"/>
</svg>
