<svg xmlns="http://www.w3.org/2000/svg" viewBox="0 0 160 160" fill="none">
  <path fill="#189EB5" d="M80 160c44.183 0 80-35.817 80-80S124.183 0 80 0 0 35.817 0 80s35.817 80 80 80z"/>
  <path fill="#fff" d="M108.053 40h-56a9.306 9.306 0 0 0-9.386 9.28v56a9.282 9.282 0 0 0 8.853 9.387c-.347 0-.427.16 0 .16h42.4c1.648.001 3.272.385 4.747 1.12l18.666 9.386V49.386a9.304 9.304 0 0 0-9.28-9.386zm-54.72 53.173a2.428 2.428 0 0 1 3.494-.24A39.547 39.547 0 0 0 80 99.733c15.093 0 23.227-6.8 23.227-6.88a2.478 2.478 0 0 1 3.493.24 2.503 2.503 0 0 1 .513 2.764c-.133.305-.326.58-.566.81-.427.32-9.627 8-26.667 8s-26.133-7.707-26.667-8a2.426 2.426 0 0 1 0-3.494z"/>
</svg>
