<svg xmlns="http://www.w3.org/2000/svg" viewBox="0 0 531.48 600">
  <path d="M265.74 294.15a13.37 13.37 0 0 1-13.37-13.37V13.37a13.37 13.37 0 0 1 26.74 0v267.41a13.37 13.37 0 0 1-13.37 13.37z"/>
  <path d="M386.07 124.51a13.64 13.64 0 0 0 6.39 11.49c81.29 52.11 128.82 152.43 100.89 260.55-20.07 77.69-80.09 140.55-157.09 163.1-159.91 46.78-306.18-72.54-306.18-225.39C30.08 249.74 75 175.68 142 134.09a7.13 7.13 0 0 0 3.4-6.09v-7.26c0-10.5-11.62-17.07-20.51-11.48-91.64 57.52-146 169.16-117.13 290 22.18 92.87 94.58 167.38 187 191.49 177 46.18 336.74-86.84 336.74-256.48 0-93.45-48.59-175.61-121.74-223-10.21-6.57-23.69 1.1-23.69 13.24z"/>
</svg>
