<svg xmlns="http://www.w3.org/2000/svg" viewBox="0 0 720 600">
    <path d="M613.1 86.55C545.31 30.74 455.43 0 360 0S174.69 30.74 106.9 86.55C38 143.31 0 219.11 0 300s38 156.69 106.9 213.45C174.69 569.26 264.57 600 360 600c56.44 0 110.95-10.76 160.09-31.1l127.36 10.24q.61.05 1.23.05a14.83 14.83 0 0 0 9.58-3.5 14.51 14.51 0 0 0 5.18-10l9.64-117.21C703.7 403.8 720 353 720 300c0-80.89-38-156.69-106.9-213.45zm-55.33 459l-41.09-3.33c-.9.39-1.78.81-2.68 1.2a373.35 373.35 0 0 1-49.64 17.27A398.64 398.64 0 0 1 360 574.39C175.94 574.39 26.74 451.54 26.74 300S175.94 25.61 360 25.61 693.26 148.46 693.26 300a231.23 231.23 0 0 1-20.58 95.13 255 255 0 0 1-25.09 43.56c-1 1.38-2 2.73-3 4.1l-6.39 110.57s-81.2-7.44-80.44-7.85z"/>
</svg>
