<svg xmlns="http://www.w3.org/2000/svg" viewBox="0 0 28 28">
  <path d="M26.12 7A13.9 13.9 0 0 0 21 1.88a14.08 14.08 0 0 0-14 0A13.9 13.9 0 0 0 1.88 7a14.08 14.08 0 0 0 0 14A13.9 13.9 0 0 0 7 26.12a14.08 14.08 0 0 0 14.05 0A13.9 13.9 0 0 0 26.12 21 13.77 13.77 0 0 0 28 14a13.73 13.73 0 0 0-1.88-7zm-1.2 13.35a12.56 12.56 0 0 1-4.59 4.59 12.69 12.69 0 0 1-12.65 0 12.56 12.56 0 0 1-4.59-4.59 12.72 12.72 0 0 1 0-12.65 12.56 12.56 0 0 1 4.6-4.62 12.69 12.69 0 0 1 12.65 0A12.59 12.59 0 0 1 26.62 14a12.72 12.72 0 0 1-1.7 6.33z"/>
  <path d="M14.93 13.58h4.16v1.79h-4.16v4.72H13v-4.72H8.86v-1.79H13V9.22h1.91z"/>
</svg>
