<svg xmlns="http://www.w3.org/2000/svg" viewBox="0 0 11.89 16">
  <path d="M5.95 9.81A5.18 5.18 0 0 1 .53 4.9 5.18 5.18 0 0 1 5.95 0a5.18 5.18 0 0 1 5.42 4.9 5.18 5.18 0 0 1-5.42 4.91zm0-8.91a4.3 4.3 0 0 0-4.52 4 4.3 4.3 0 0 0 4.52 4 4.3 4.3 0 0 0 4.52-4A4.3 4.3 0 0 0 5.95.89zM.45 16a.45.45 0 0 1-.45-.45 4.81 4.81 0 0 1 2.11-4.32 7.52 7.52 0 0 1 4-1 5.42 5.42 0 0 1 5 2.62 5.92 5.92 0 0 1 .72 2.61.45.45 0 0 1-.89 0 5.09 5.09 0 0 0-.62-2.21 4.46 4.46 0 0 0-4.17-2.15 6.65 6.65 0 0 0-3.55.9 4 4 0 0 0-1.71 3.55.45.45 0 0 1-.44.45z"/>
</svg>
