<svg viewBox="0 0 20 24" fill="none" xmlns="http://www.w3.org/2000/svg">
<path d="M9.99879 14.5831C12.5494 14.5831 14.6171 12.5154 14.6171 9.96477C14.6171 7.41414 12.5494 5.34644 9.99879 5.34644C7.44816 5.34644 5.38046 7.41414 5.38046 9.96477C5.38046 12.5154 7.44816 14.5831 9.99879 14.5831Z" fill="white"/>
<path d="M10.066 11.7925C8.73031 11.7925 7.64319 10.8006 7.64319 9.58132C7.64319 8.36208 8.72975 7.37012 10.066 7.37012C11.4022 7.37012 12.4888 8.36208 12.4888 9.58132C12.4888 10.8006 11.4017 11.7925 10.066 11.7925Z" fill="#90A4AE"/>
<path d="M12.4837 13.7188C12.4837 13.7139 12.4837 13.7092 12.4837 13.7048C12.4837 13.6953 12.4837 13.6852 12.4804 13.6757C12.477 13.6661 12.4804 13.6639 12.4776 13.6577C12.4748 13.6516 12.4748 13.641 12.4726 13.6331C12.4104 12.9798 12.1266 12.4839 11.6267 12.1564C11.5987 12.1385 11.5707 12.1211 11.5422 12.1043C11.3311 11.9708 11.0988 11.874 10.8553 11.8183C10.3395 11.9716 9.79024 11.9716 9.27443 11.8183C9.01868 11.877 8.77559 11.9813 8.55677 12.1261L8.50583 12.158C8.00537 12.485 7.72212 12.9809 7.65998 13.6337C7.65998 13.6443 7.6555 13.6555 7.65382 13.6667V13.6701C7.65382 13.6829 7.64822 13.7148 7.64822 13.7182C7.64822 13.7322 7.64822 13.7462 7.64822 13.7607V14.0054C7.64867 14.1589 7.70985 14.306 7.81841 14.4146C7.92697 14.5231 8.07409 14.5843 8.22761 14.5848C9.44162 14.8435 10.6965 14.8435 11.9105 14.5848C12.0635 14.5837 12.2101 14.5235 12.3197 14.4168C12.4277 14.3081 12.4881 14.1609 12.4877 14.0076V13.7602C12.4865 13.7451 12.4837 13.7316 12.4837 13.7188Z" fill="#90A4AE"/>
<path d="M16.8709 3.11006C15.0431 1.29744 12.5731 0.280388 9.99885 0.280388C7.42462 0.280388 4.95464 1.29744 3.12679 3.11006C2.2248 4.0045 1.50886 5.06871 1.02028 6.24127C0.531698 7.41383 0.280151 8.67154 0.280151 9.94182C0.280151 11.2121 0.531698 12.4698 1.02028 13.6424C1.50886 14.8149 2.2248 15.8791 3.12679 16.7736L9.99885 23.6031L16.8709 16.7736C17.7729 15.8791 18.4888 14.8149 18.9774 13.6424C19.466 12.4698 19.7176 11.2121 19.7176 9.94182C19.7176 8.67154 19.466 7.41383 18.9774 6.24127C18.4888 5.06871 17.7729 4.0045 16.8709 3.11006ZM9.99885 14.7723C7.31519 14.7723 5.13926 12.6092 5.13926 9.94182C5.13926 7.27439 7.31463 5.11133 9.99885 5.11133C12.6831 5.11133 14.8584 7.27439 14.8584 9.94182C14.8584 12.6092 12.6825 14.7723 9.99885 14.7723Z" fill="#CFD8DC"/>
<path d="M9.99882 24L2.92915 16.9718C2.00101 16.0513 1.26432 14.9562 0.761576 13.7496C0.258837 12.5429 0 11.2487 0 9.94155C0 8.63438 0.258837 7.34016 0.761576 6.13354C1.26432 4.92692 2.00101 3.83179 2.92915 2.91134C4.80947 1.04642 7.35051 0 9.99882 0C12.6471 0 15.1882 1.04642 17.0685 2.91134C17.9966 3.83179 18.7333 4.92692 19.2361 6.13354C19.7388 7.34016 19.9976 8.63438 19.9976 9.94155C19.9976 11.2487 19.7388 12.5429 19.2361 13.7496C18.7333 14.9562 17.9966 16.0513 17.0685 16.9718L9.99882 24ZM9.99882 0.560193C8.76001 0.556128 7.5326 0.796854 6.38709 1.26854C5.24159 1.74023 4.20056 2.43359 3.3238 3.30879C2.44788 4.17724 1.75262 5.21055 1.27815 6.34911C0.803681 7.48767 0.559397 8.70892 0.559397 9.94239C0.559397 11.1759 0.803681 12.3971 1.27815 13.5357C1.75262 14.6742 2.44788 15.7075 3.3238 16.576L9.99882 23.2107L16.6738 16.5749C17.5498 15.7064 18.245 14.6731 18.7195 13.5345C19.194 12.396 19.4382 11.1747 19.4382 9.94127C19.4382 8.7078 19.194 7.48655 18.7195 6.34799C18.245 5.20943 17.5498 4.17612 16.6738 3.30768C15.797 2.43268 14.7559 1.73952 13.6104 1.26803C12.4649 0.796531 11.2376 0.555981 9.99882 0.560193ZM9.99882 15.0522C7.16513 15.0522 4.85933 12.757 4.85933 9.94183C4.85933 7.12661 7.16569 4.83088 9.99882 4.83088C12.832 4.83088 15.1383 7.12605 15.1383 9.94127C15.1383 12.7565 12.8325 15.0522 9.99882 15.0522ZM9.99882 5.39068C7.47358 5.39068 5.41912 7.43226 5.41912 9.94127C5.41912 12.4503 7.47358 14.4919 9.99882 14.4919C12.5241 14.4919 14.5785 12.4503 14.5785 9.94127C14.5785 7.43226 12.5241 5.39068 9.99882 5.39068Z" fill="#CFD8DC"/>
</svg>
