<svg viewBox="0 0 35 20" fill="none" xmlns="http://www.w3.org/2000/svg">
<path d="M20.5225 18.955V19.179C20.5225 19.2384 20.4989 19.2954 20.4569 19.3374C20.4149 19.3794 20.3579 19.403 20.2985 19.403H14.03C13.9706 19.403 13.9136 19.3794 13.8716 19.3374C13.8296 19.2954 13.806 19.2384 13.806 19.179V18.955H0V19.55C0 19.6693 0.0474106 19.7838 0.131802 19.8682C0.216193 19.9526 0.330653 20 0.45 20H33.8805C33.9998 20 34.1143 19.9526 34.1987 19.8682C34.2831 19.7838 34.3305 19.6693 34.3305 19.55V18.955H20.5225Z" fill="#90A4AE"/>
<path d="M30.45 0H3.88049C3.64298 0 3.41521 0.0943471 3.24727 0.262286C3.07933 0.430225 2.98499 0.657999 2.98499 0.8955V17.761C2.98499 17.9985 3.07933 18.2263 3.24727 18.3942C3.41521 18.5622 3.64298 18.6565 3.88049 18.6565H30.45C30.6875 18.6565 30.9153 18.5622 31.0832 18.3942C31.2511 18.2263 31.3455 17.9985 31.3455 17.761V0.8955C31.3455 0.657999 31.2511 0.430225 31.0832 0.262286C30.9153 0.0943471 30.6875 0 30.45 0V0ZM17.164 0.224C17.2082 0.223903 17.2515 0.236907 17.2884 0.261373C17.3252 0.285839 17.354 0.320671 17.3711 0.361477C17.3882 0.402282 17.3928 0.447233 17.3844 0.490662C17.3759 0.534091 17.3549 0.574053 17.3237 0.605508C17.2926 0.636963 17.2529 0.658503 17.2096 0.667411C17.1663 0.676319 17.1213 0.672197 17.0803 0.655564C17.0393 0.638931 17.0041 0.610533 16.9792 0.57395C16.9544 0.537366 16.9409 0.494237 16.9405 0.45C16.9402 0.420458 16.9458 0.391156 16.9569 0.36378C16.968 0.336405 16.9844 0.311497 17.0052 0.290491C17.026 0.269485 17.0507 0.252796 17.078 0.241384C17.1052 0.229973 17.1344 0.224065 17.164 0.224ZM30.597 17.724H3.73149V0.933H30.597V17.724Z" fill="#90A4AE"/>
<path d="M20.7 4.90601C19.7596 3.97346 18.4889 3.45021 17.1645 3.45021C15.8401 3.45021 14.5694 3.97346 13.629 4.90601C13.165 5.36618 12.7967 5.91369 12.5453 6.51694C12.294 7.12019 12.1646 7.76724 12.1646 8.42076C12.1646 9.07427 12.294 9.72132 12.5453 10.3246C12.7967 10.9278 13.165 11.4753 13.629 11.9355L17.164 15.45L20.7 11.9355C21.164 11.4753 21.5324 10.9278 21.7837 10.3246C22.035 9.72132 22.1645 9.07427 22.1645 8.42076C22.1645 7.76724 22.035 7.12019 21.7837 6.51694C21.5324 5.91369 21.164 5.36618 20.7 4.90601ZM17.1645 10.906C16.6735 10.9031 16.1944 10.7549 15.7876 10.4801C15.3808 10.2052 15.0645 9.81607 14.8786 9.36166C14.6927 8.90725 14.6455 8.40796 14.743 7.92678C14.8406 7.4456 15.0784 7.00408 15.4266 6.65793C15.7748 6.31178 16.2177 6.07649 16.6994 5.98176C17.1812 5.88702 17.6802 5.93708 18.1335 6.12562C18.5868 6.31416 18.9741 6.63274 19.2466 7.04116C19.5191 7.44957 19.6645 7.92954 19.6645 8.42051C19.6636 8.74791 19.5982 9.07193 19.472 9.37405C19.3458 9.67616 19.1614 9.95046 18.9292 10.1813C18.697 10.4121 18.4216 10.5949 18.1187 10.7192C17.8158 10.8436 17.4914 10.9071 17.164 10.906H17.1645Z" fill="#CFD8DC"/>
</svg>
