<svg viewBox="0 0 200 191" xmlns="http://www.w3.org/2000/svg">
  <path d="M100 28.25L119.688 68.125L122.625 74L129.125 74.9375L173.188 81.3125L141.313 112.375L136.625 116.938L137.75 123.438L145.25 167.313L105.875 146.625L100.063 143.562L94.25 146.625L54.875 167.313L62.375 123.438L63.5 116.938L58.8125 112.375L26.9375 81.3125L71 74.9375L77.5 74L80.4375 68.125L100 28.25ZM100 0L69.125 62.625L0 72.625L50 121.375L38.1875 190.187L100 157.688L161.812 190.187L150 121.375L200 72.625L130.875 62.5625L100 0Z"/>
</svg>
