<svg viewBox="0 0 15 12" xmlns="http://www.w3.org/2000/svg">
    <path d="M14.434 1.657a5.705 5.705 0 0 1-1.65.452A2.879 2.879 0 0 0 14.048.52a5.714 5.714 0 0 1-1.824.698 2.871 2.871 0 0 0-4.893 2.62 8.155 8.155 0 0 1-5.92-3 2.871 2.871 0 0 0 .888 3.834 2.856 2.856 0 0 1-1.301-.36v.036c0 1.392.99 2.552 2.304 2.816a2.863 2.863 0 0 1-1.298.051A2.878 2.878 0 0 0 4.686 9.21a5.763 5.763 0 0 1-4.252 1.188 8.118 8.118 0 0 0 4.402 1.291c5.283 0 8.172-4.376 8.172-8.17 0-.126-.003-.249-.01-.373a5.834 5.834 0 0 0 1.436-1.488"
          fill-rule="evenodd"/>
</svg>
