<svg viewBox="0 0 15 14" xmlns="http://www.w3.org/2000/svg">
    <path d="M12.916 9.83c-.031.682-.146 1.053-.241 1.3-.127.326-.279.56-.524.803a2.168 2.168 0 0 1-.805.524c-.246.097-.618.21-1.3.241-.737.034-.959.04-2.829.04-1.869 0-2.091-.006-2.828-.04-.682-.03-1.054-.144-1.3-.24a2.156 2.156 0 0 1-.805-.525 2.164 2.164 0 0 1-.524-.804c-.096-.246-.21-.617-.24-1.3-.035-.738-.042-.96-.042-2.829 0-1.869.008-2.09.042-2.829.03-.683.145-1.053.24-1.3.127-.327.279-.56.524-.805.245-.246.478-.397.805-.524.246-.096.618-.21 1.3-.24.738-.035.96-.04 2.828-.04 1.869 0 2.091.006 2.829.04.682.031 1.053.145 1.3.24.327.127.56.28.805.524s.397.478.524.805c.095.246.21.617.241 1.3.033.738.04.96.04 2.83 0 1.868-.007 2.09-.04 2.828m1.259-5.715c.034.746.042.985.042 2.886 0 1.901-.008 2.14-.042 2.886-.033.745-.153 1.255-.325 1.7a3.417 3.417 0 0 1-.808 1.24c-.39.388-.779.627-1.239.807-.446.173-.954.291-1.7.325-.747.034-.985.042-2.886.042-1.901 0-2.139-.008-2.886-.042-.745-.034-1.253-.152-1.699-.325a3.443 3.443 0 0 1-1.24-.808 3.417 3.417 0 0 1-.808-1.24c-.173-.444-.291-.953-.325-1.699C.225 9.14.217 8.901.217 7c0-1.9.008-2.14.042-2.886.034-.745.152-1.255.325-1.699.179-.46.418-.852.808-1.24a3.43 3.43 0 0 1 1.24-.808c.445-.173.954-.29 1.699-.325C5.078.008 5.316 0 7.218 0c1.901 0 2.139.008 2.885.042.746.033 1.254.152 1.7.325.46.18.85.418 1.239.808.39.39.629.78.808 1.24.172.444.291.953.325 1.7zm-3.22-1.691a.84.84 0 1 0 0 1.681.84.84 0 0 0 0-1.681zM7.216 9.334a2.334 2.334 0 1 1 .001-4.668 2.334 2.334 0 0 1-.001 4.668zm0-5.929a3.595 3.595 0 1 0 .001 7.19 3.595 3.595 0 0 0-.001-7.19z"
          fill-rule="evenodd"/>
</svg>
