<svg xmlns="http://www.w3.org/2000/svg" viewBox="0 0 72 72" fill="none">
  <circle cx="36" cy="36" r="36" fill="#455A64"/>
  <path fill="#fff" d="M27.344 25.1h-8.762v32.51a2.163 2.163 0 0 0 2.16 2.16h29.279a2.163 2.163 0 0 0 2.161-2.16V16.39a2.163 2.163 0 0 0-2.16-2.16h-20.04v8.233a2.646 2.646 0 0 1-2.638 2.637z"/>
  <path fill="#455A64" d="M50.021 12h-20.3l.006.014S16.382 24.8 16.353 24.826V57.61a4.4 4.4 0 0 0 4.39 4.39h29.278a4.4 4.4 0 0 0 4.39-4.39V16.39a4.4 4.4 0 0 0-4.39-4.39zm2.161 45.61a2.163 2.163 0 0 1-2.16 2.16H20.743a2.163 2.163 0 0 1-2.161-2.16V26.2h8.408c2.03 0 3.691-1.713 3.691-3.806v-8.165h19.34a2.163 2.163 0 0 1 2.161 2.161v41.22z"/>
  <path fill="#455A64" d="M45.956 28.657H30.032a1.114 1.114 0 1 0 0 2.229h15.924a1.115 1.115 0 0 0 0-2.229zM24.894 31a1.2 1.2 0 1 0 0-2.4 1.2 1.2 0 0 0 0 2.4zM45.956 43.557H30.032a1.114 1.114 0 1 0 0 2.229h15.924a1.115 1.115 0 0 0 0-2.229zM24.894 45.9a1.2 1.2 0 1 0 0-2.4 1.2 1.2 0 0 0 0 2.4zM45.956 51.257H30.032a1.114 1.114 0 1 0 0 2.229h15.924a1.115 1.115 0 0 0 0-2.229zM24.894 53.6a1.2 1.2 0 1 0 0-2.4 1.2 1.2 0 0 0 0 2.4zM45.956 36.357H30.032a1.114 1.114 0 1 0 0 2.229h15.924a1.115 1.115 0 0 0 0-2.229zM24.894 38.7a1.2 1.2 0 1 0 0-2.4 1.2 1.2 0 0 0 0 2.4z"/>
</svg>
