<svg viewBox="0 0 320 420" xmlns="http://www.w3.org/2000/svg">
<path d="M225.883 269.291H92.0267C87.8437 269.291 83.6602 265.112 83.6602 260.933C83.6602 256.754 87.8437 252.575 92.0267 252.575H225.883C230.066 252.575 234.248 256.754 234.248 260.933C236.34 265.112 232.157 269.291 225.883 269.291Z"/>
<path d="M225.883 173.172H92.0267C87.8437 173.172 83.6602 168.992 83.6602 164.813C83.6602 160.634 87.8437 156.455 92.0267 156.455H225.883C230.066 156.455 234.248 160.634 234.248 164.813C236.34 168.992 232.157 173.172 225.883 173.172Z"/>
<path d="M282.353 420H37.6474C16.7324 420 0 403.284 0 382.388V37.612C0 16.7165 16.7324 0 37.6474 0H282.353C303.268 0 320 16.7165 320 37.612V382.388C320 403.284 303.268 420 282.353 420ZM37.6474 20.8955C27.1899 20.8955 18.824 29.2536 18.824 39.7014V384.477C18.824 394.925 27.1899 403.284 37.6474 403.284H282.353C292.81 403.284 301.177 394.925 301.177 384.477V39.7014C301.177 29.2536 292.81 20.8955 282.353 20.8955H37.6474Z"/>
</svg>
