<svg xmlns="http://www.w3.org/2000/svg" viewBox="0 0 240 240" fill="none">
  <path fill="#CFD8DC" d="M120 240c66.274 0 120-53.726 120-120S186.274 0 120 0 0 53.726 0 120s53.726 120 120 120z"/>
  <path fill="#455A64" d="M120 228.75c60.061 0 108.75-48.689 108.75-108.75S180.061 11.25 120 11.25 11.25 59.939 11.25 120 59.939 228.75 120 228.75z"/>
  <path fill="#fff" d="M182.625 112.5H127.5V48a7.498 7.498 0 0 0-12.803-5.303A7.498 7.498 0 0 0 112.5 48v72a7.497 7.497 0 0 0 7.5 7.5h62.625a7.497 7.497 0 0 0 7.5-7.5 7.497 7.497 0 0 0-7.5-7.5z"/>
</svg>
