<svg xmlns="http://www.w3.org/2000/svg" viewBox="0 0 13.5 15.54">
  <path d="M13.19 3.77a2.75 2.75 0 0 0-.86-.88H1.12a2.55 2.55 0 0 0-.86.88C-.59 5.26.89 6.59 1.34 9.5s-.56 4.92.61 5.75a1.79 1.79 0 0 0 1.05.29h7.41a2 2 0 0 0 1.14-.31c1.21-.83.35-2.72.85-5.86.48-2.85 1.65-4.17.79-5.6zm-9.13 9H4a.43.43 0 0 1-.49-.32l-.7-2.73a9.5 9.5 0 0 1-.28-2.17l-.16-2.9a.38.38 0 0 1 .38-.4.43.43 0 0 1 .49.32l.17 3c0 .28 0 .59.09.91a10.28 10.28 0 0 0 .23 1.13l.67 2.82a.38.38 0 0 1-.34.34zm3.1-.34a.39.39 0 0 1-.39.39h-.12a.39.39 0 0 1-.39-.39V4.62a.39.39 0 0 1 .39-.39h.13a.39.39 0 0 1 .39.39zm3.94-7.78l-.16 2.9a9.48 9.48 0 0 1-.09 1.22 9.53 9.53 0 0 1-.18 1l-.72 2.74a.43.43 0 0 1-.49.32.38.38 0 0 1-.38-.4l.62-2.88a10.28 10.28 0 0 0 .23-1.13c0-.32.08-.63.09-.91l.17-3a.43.43 0 0 1 .49-.32.38.38 0 0 1 .42.46zM8.15 0H5.24C4.52 0 4 .4 3.93.86h5.52C9.41.4 8.86 0 8.15 0z"/>
  <rect width="12.95" height="1.29" x=".26" y="1.21" rx=".65" ry=".65"/>
</svg>
